<svg xmlns="http://www.w3.org/2000/svg" width="2000" height="3000">
    <g transform="translate(30, 1000)">
        <line x1="0" y1="0" x2="0" y2="-3300" stroke="blue" stroke-width="3"/>
        <g class="characters">
            <text x="80" y="-357">3376</text> 
        
        
        <rect x="80" y="-675.2" width="40" height="675.2" fill="peru"/> 
        <g class="istorymeasure">
                <rect x="80" y="0" width="40" height="147" fill="peru"/>
                <rect x="80" y="0" width="40" height="147" fill="black" fill-opacity=".50"/>
            </g>
        
        
        
         <text x="85" y="-695">3376</text>
            <text x="120" y="-337.6">zato</text>
        </g>
        <g class="characters">
            <text x="160" y="-289">2698</text> 
        
        
        <rect x="160" y="-539.6" width="40" height="539.6" fill="red"/> 
        <g class="istorymeasure">
                <rect x="160" y="0" width="40" height="134" fill="red"/>
                <rect x="160" y="0" width="40" height="134" fill="black" fill-opacity=".50"/>
            </g>
        
        
        
         <text x="165" y="-559">2698</text>
            <text x="200" y="-269.8">ram</text>
        </g>
        <g class="characters">
            <text x="240" y="-276">2566</text> 
        
        
        <rect x="240" y="-513.2" width="40" height="513.2" fill="blue"/> 
        <g class="istorymeasure">
                <rect x="240" y="0" width="40" height="150" fill="blue"/>
                <rect x="240" y="0" width="40" height="150" fill="black" fill-opacity=".50"/>
            </g>
        
        
        
         <text x="245" y="-533">2566</text>
            <text x="280" y="-256.6">pot</text>
        </g>
        <g class="characters">
            <text x="320" y="-170">1501</text> 
        
        
        <rect x="320" y="-300.2" width="40" height="300.2" fill="orange"/> 
        <g class="istorymeasure">
                <rect x="320" y="0" width="40" height="155" fill="orange"/>
                <rect x="320" y="0" width="40" height="155" fill="black" fill-opacity=".50"/>
            </g>
        
        
        
         <text x="325" y="-320">1501</text>
            <text x="360" y="-150.1">gio</text>
        </g>
        <g class="characters">
            <text x="400" y="-262">2421</text> 
        
        
        <rect x="400" y="-484.2" width="40" height="484.2" fill="crimson"/> 
        <g class="istorymeasure">
                <rect x="400" y="0" width="40" height="82" fill="crimson"/>
                <rect x="400" y="0" width="40" height="82" fill="black" fill-opacity=".50"/>
            </g>
        
        
        
         <text x="405" y="-504">2421</text>
            <text x="440" y="-242.1">faust</text>
        </g>
        <g class="characters">
            <text x="480" y="-196">1769</text> 
        
        
        <rect x="480" y="-353.8" width="40" height="353.8" fill="cyan"/> 
        <g class="istorymeasure">
                <rect x="480" y="0" width="40" height="31" fill="cyan"/>
                <rect x="480" y="0" width="40" height="31" fill="black" fill-opacity=".50"/>
            </g>
        
        
        
         <text x="485" y="-373">1769</text>
            <text x="520" y="-176.9">anji</text>
        </g>
        <g class="characters">
            <text x="560" y="-255">2357</text> 
        
        
        <rect x="560" y="-471.4" width="40" height="471.4" fill="grey"/> 
        <g class="istorymeasure">
                <rect x="560" y="0" width="40" height="59" fill="grey"/>
                <rect x="560" y="0" width="40" height="59" fill="black" fill-opacity=".50"/>
            </g>
        
        
        
         <text x="565" y="-491">2357</text>
            <text x="600" y="-235.7">millia</text>
        </g>
        <g class="characters">
            <text x="640" y="-234">2140</text> 
        
        
        <rect x="640" y="-428" width="40" height="428" fill="navy"/> 
        <g class="istorymeasure">
                <rect x="640" y="0" width="40" height="89" fill="navy"/>
                <rect x="640" y="0" width="40" height="89" fill="black" fill-opacity=".50"/>
            </g>
        
        
        
         <text x="645" y="-448">2140</text>
            <text x="680" y="-214">axl</text>
        </g>
        <g class="characters">
            <text x="720" y="-222">2027</text> 
        
        
        <rect x="720" y="-405.4" width="40" height="405.4" fill="gold"/> 
        <g class="istorymeasure">
                <rect x="720" y="0" width="40" height="302" fill="gold"/>
                <rect x="720" y="0" width="40" height="302" fill="black" fill-opacity=".50"/>
            </g>
        
        
        
         <text x="725" y="-425">2027</text>
            <text x="760" y="-202.7">chipp</text>
        </g>
        <g class="characters">
            <text x="800" y="-232">2129</text> 
        
        
        <rect x="800" y="-425.8" width="40" height="425.8" fill="black"/> 
        <g class="istorymeasure">
                <rect x="800" y="0" width="40" height="140" fill="black"/>
                <rect x="800" y="0" width="40" height="140" fill="black" fill-opacity=".50"/>
            </g>
        
        
        
         <text x="805" y="-445">2129</text>
            <text x="840" y="-212.9">goldlewis</text>
        </g>
        <g class="characters">
            <text x="880" y="-241">2217</text> 
        
        
        <rect x="880" y="-443.4" width="40" height="443.4" fill="lime"/> 
        <g class="istorymeasure">
                <rect x="880" y="0" width="40" height="137" fill="lime"/>
                <rect x="880" y="0" width="40" height="137" fill="black" fill-opacity=".50"/>
            </g>
        
        
        
         <text x="885" y="-463">2217</text>
            <text x="920" y="-221.7">ino</text>
        </g>
        <g class="characters">
            <text x="960" y="-197">1774</text> 
        
        
        <rect x="960" y="-354.8" width="40" height="354.8" fill="saddlebrown"/> 
        <g class="istorymeasure">
                <rect x="960" y="0" width="40" height="225" fill="saddlebrown"/>
                <rect x="960" y="0" width="40" height="225" fill="black" fill-opacity=".50"/>
            </g>
        
        
        
         <text x="965" y="-374">1774</text>
            <text x="1000" y="-177.4">jKO</text>
        </g>
        <g class="characters">
            <text x="1040" y="-315">2951</text> 
        
        
        <rect x="1040" y="-590.2" width="40" height="590.2" fill="green"/> 
        <g class="istorymeasure">
                <rect x="1040" y="0" width="40" height="150" fill="green"/>
                <rect x="1040" y="0" width="40" height="150" fill="black" fill-opacity=".50"/>
            </g>
        
        
        
         <text x="1045" y="-610">2951</text>
            <text x="1080" y="-295.1">ky</text>
        </g>
        <g class="characters">
            <text x="1120" y="-312">2925</text> 
        
        
        <rect x="1120" y="-585" width="40" height="585" fill="teal"/> 
        <g class="istorymeasure">
                <rect x="1120" y="0" width="40" height="239" fill="teal"/>
                <rect x="1120" y="0" width="40" height="239" fill="black" fill-opacity=".50"/>
            </g>
        
        
        
         <text x="1125" y="-605">2925</text>
            <text x="1160" y="-292.5">leo</text>
        </g>
        <g class="characters">
            <text x="1200" y="-235">2150</text> 
        
        
        <rect x="1200" y="-430" width="40" height="430" fill="firebrick"/> 
        <g class="istorymeasure">
                <rect x="1200" y="0" width="40" height="126" fill="firebrick"/>
                <rect x="1200" y="0" width="40" height="126" fill="black" fill-opacity=".50"/>
            </g>
        
        
        
         <text x="1205" y="-450">2150</text>
            <text x="1240" y="-215">may</text>
        </g>
        <g class="characters">
            <text x="1280" y="-286">2663</text> 
        
        
        <rect x="1280" y="-532.6" width="40" height="532.6" fill="goldenrod"/> 
        <g class="istorymeasure">
                <rect x="1280" y="0" width="40" height="72" fill="goldenrod"/>
                <rect x="1280" y="0" width="40" height="72" fill="black" fill-opacity=".50"/>
            </g>
        
        
        
         <text x="1285" y="-552">2663</text>
            <text x="1320" y="-266.3">nago</text>
        </g>
        <g class="characters">
            <text x="1360" y="-330">3106</text> 
        
        
        <rect x="1360" y="-621.2" width="40" height="621.2" fill="gainsboro"/> 
        <g class="istorymeasure">
                <rect x="1360" y="0" width="40" height="233" fill="gainsboro"/>
                <rect x="1360" y="0" width="40" height="233" fill="black" fill-opacity=".50"/>
            </g>
        
        
        
         <text x="1365" y="-641">3106</text>
            <text x="1400" y="-310.6">sol</text>
        </g>
        <line x1="0" y1="0" x2="1410" y2="0" stroke="red" stroke-width="3"/>
    </g>
</svg>